# xmcd
#
# Track frame offsets:
#	150
#	17738
#	31811
#	46555
#	59449
#	71792
#	84614
#	93987
#	111565
#	126630
#
# Disc length: 1935 seconds
#
# Revision: 1
# Processed by: cddbd v1.5.2PL0 Copyright (c) Steve Scherf et al.
# Submitted via: audiograbber 1.83.01
#
DISCID=88078d0a
DTITLE=Bonita Mercer - Two Souls Bonita Mercer
DYEAR=2007
DGENRE=Country
TTITLE0=Two Souls
TTITLE1=The Same Eyes That Always Drowe Me Crazy
TTITLE2=True Blue
TTITLE3=There´s Gotta Be A Better Way Than This
TTITLE4=For The First Time
TTITLE5=Something Misty
TTITLE6=Troubles Of The World
TTITLE7=Shadows
TTITLE8=So Happy That I Cry
TTITLE9=Good Old Gospel Feeling
EXTD=
EXTT0=
EXTT1=
EXTT2=
EXTT3=
EXTT4=
EXTT5=
EXTT6=
EXTT7=
EXTT8=
EXTT9=
PLAYORDER=
